HIERARCHY
ROOT Hips
{
	OFFSET 0.000000 71.427986 0.000000
	CHANNELS 6 Xposition Yposition Zposition Xrotation Yrotation Zrotation
	JOINT Pelvis
	{
		OFFSET 0.000000 0.000000 0.000000
		CHANNELS 3 Xrotation Yrotation Zrotation
		JOINT LeftUpLeg
		{
			OFFSET 6.797100 -2.508499 -1.318700
			CHANNELS 3 Xrotation Yrotation Zrotation
			JOINT LeftLeg
			{
				OFFSET 0.069008 -29.241863 0.690200
				CHANNELS 3 Xrotation Yrotation Zrotation
				JOINT LeftFoot
				{
					OFFSET -0.069008 -29.568123 -0.266800
					CHANNELS 3 Xrotation Yrotation Zrotation
					JOINT LeftToeBase
					{
						OFFSET 3.145500 -8.631000 16.059900
						CHANNELS 3 Xrotation Yrotation Zrotation
						End Site
						{
							OFFSET 0.000000 18.501587 0.000000
						}
					}
				}
			}
			JOINT Left_ShortSleeve
			{
				OFFSET 0.265923 -10.480953 1.153800
				CHANNELS 3 Xrotation Yrotation Zrotation
				End Site
				{
					OFFSET 1.725763 19.823879 0.000000
				}
			}
		}
		JOINT RightUpLeg
		{
			OFFSET -6.797100 -2.508499 -1.318700
			CHANNELS 3 Xrotation Yrotation Zrotation
			JOINT RightLeg
			{
				OFFSET -0.082453 -29.241932 0.688000
				CHANNELS 3 Xrotation Yrotation Zrotation
				JOINT RightFoot
				{
					OFFSET 0.082453 -29.568058 -0.264600
					CHANNELS 3 Xrotation Yrotation Zrotation
					JOINT RightToeBase
					{
						OFFSET -3.115300 -8.682800 16.113400
						CHANNELS 3 Xrotation Yrotation Zrotation
						End Site
						{
							OFFSET 0.000000 18.567114 0.000000
						}
					}
				}
			}
			JOINT Right_ShortSleeve
			{
				OFFSET -0.265923 -10.480953 1.153800
				CHANNELS 3 Xrotation Yrotation Zrotation
				End Site
				{
					OFFSET -1.725766 19.823910 0.000000
				}
			}
		}
	}
	JOINT Spine
	{
		OFFSET 0.000000 13.368103 0.470500
		CHANNELS 3 Xrotation Yrotation Zrotation
		JOINT Spine1
		{
			OFFSET 0.147000 13.837402 0.538800
			CHANNELS 3 Xrotation Yrotation Zrotation
			JOINT Spine2
			{
				OFFSET 0.168000 16.242897 -1.435500
				CHANNELS 3 Xrotation Yrotation Zrotation
				JOINT Neck
				{
					OFFSET 0.217200 18.631500 -1.679100
					CHANNELS 3 Xrotation Yrotation Zrotation
					JOINT Head
					{
						OFFSET 0.000000 6.599396 1.385900
						CHANNELS 3 Xrotation Yrotation Zrotation
						JOINT Hat
						{
							OFFSET -0.532200 27.220596 -10.096100
							CHANNELS 3 Xrotation Yrotation Zrotation
							End Site
							{
								OFFSET 0.000000 22.029861 0.000000
							}
						}
						JOINT HairD
						{
							OFFSET -10.777400 17.437393 -1.325900
							CHANNELS 3 Xrotation Yrotation Zrotation
							JOINT HairD1
							{
								OFFSET -3.290299 -11.051193 1.062200
								CHANNELS 3 Xrotation Yrotation Zrotation
								End Site
								{
									OFFSET 0.000000 11.579437 0.000000
								}
							}
						}
						JOINT HairB
						{
							OFFSET -10.777400 17.437393 1.467900
							CHANNELS 3 Xrotation Yrotation Zrotation
							JOINT HairB1
							{
								OFFSET -1.561200 -12.956299 3.590200
								CHANNELS 3 Xrotation Yrotation Zrotation
								End Site
								{
									OFFSET 0.000000 13.534866 0.000000
								}
							}
						}
						JOINT HairA
						{
							OFFSET 9.713100 17.437393 1.467900
							CHANNELS 3 Xrotation Yrotation Zrotation
							JOINT HairA1
							{
								OFFSET 1.561200 -12.956299 3.590200
								CHANNELS 3 Xrotation Yrotation Zrotation
								End Site
								{
									OFFSET 0.000000 13.534866 0.000000
								}
							}
						}
						JOINT HairC
						{
							OFFSET 9.713100 17.437393 -1.325900
							CHANNELS 3 Xrotation Yrotation Zrotation
							JOINT HairC1
							{
								OFFSET 3.290300 -11.051193 1.062200
								CHANNELS 3 Xrotation Yrotation Zrotation
								End Site
								{
									OFFSET 0.000000 11.579437 0.000000
								}
							}
						}
					}
				}
				JOINT LeftShoulder
				{
					OFFSET 5.101800 15.108002 -2.763700
					CHANNELS 3 Xrotation Yrotation Zrotation
					JOINT LeftArm
					{
						OFFSET 9.825497 2.506317 -1.597400
						CHANNELS 3 Xrotation Yrotation Zrotation
						JOINT LeftForeArm
						{
							OFFSET 21.966244 0.000000 0.000000
							CHANNELS 3 Xrotation Yrotation Zrotation
							JOINT LeftHand
							{
								OFFSET 33.879036 0.000000 0.000000
								CHANNELS 3 Xrotation Yrotation Zrotation
								JOINT LeftHandThumb1
								{
									OFFSET 6.715286 -2.359680 3.363841
									CHANNELS 3 Xrotation Yrotation Zrotation
									JOINT LeftHandThumb2
									{
										OFFSET 2.507072 -1.447464 1.447461
										CHANNELS 3 Xrotation Yrotation Zrotation
										JOINT LeftHandThumb3
										{
											OFFSET 2.898338 -1.673355 1.673357
											CHANNELS 3 Xrotation Yrotation Zrotation
											End Site
											{
												OFFSET -0.295959 3.727692 -0.131651
											}
										}
									}
								}
								JOINT LeftHandIndex1
								{
									OFFSET 14.190811 -0.254547 3.840278
									CHANNELS 3 Xrotation Yrotation Zrotation
									JOINT LeftHandIndex2
									{
										OFFSET 3.551727 0.000000 -0.000000
										CHANNELS 3 Xrotation Yrotation Zrotation
										JOINT LeftHandIndex3
										{
											OFFSET 2.894196 0.000000 0.000000
											CHANNELS 3 Xrotation Yrotation Zrotation
											End Site
											{
												OFFSET -1.000603 2.690872 0.366626
											}
										}
									}
								}
								JOINT LeftHandMiddle1
								{
									OFFSET 13.776489 0.000000 0.000000
									CHANNELS 3 Xrotation Yrotation Zrotation
									JOINT LeftHandMiddle2
									{
										OFFSET 3.438232 0.000000 0.000000
										CHANNELS 3 Xrotation Yrotation Zrotation
										JOINT LeftHandMiddle3
										{
											OFFSET 3.691551 0.000000 0.000000
											CHANNELS 3 Xrotation Yrotation Zrotation
											End Site
											{
												OFFSET -1.082298 3.499527 0.457670
											}
										}
									}
								}
								JOINT LeftHandRing1
								{
									OFFSET 13.966164 -0.268127 -3.067488
									CHANNELS 3 Xrotation Yrotation Zrotation
									JOINT LeftHandRing2
									{
										OFFSET 3.162567 0.000000 0.000000
										CHANNELS 3 Xrotation Yrotation Zrotation
										JOINT LeftHandRing3
										{
											OFFSET 3.324348 0.000000 0.000000
											CHANNELS 3 Xrotation Yrotation Zrotation
											End Site
											{
												OFFSET -0.861900 3.184998 0.405154
											}
										}
									}
								}
								JOINT LeftHandPinky1
								{
									OFFSET 13.131393 -0.168503 -5.746925
									CHANNELS 3 Xrotation Yrotation Zrotation
									JOINT LeftHandPinky2
									{
										OFFSET 2.849182 0.000000 0.000000
										CHANNELS 3 Xrotation Yrotation Zrotation
										JOINT LeftHandPinky3
										{
											OFFSET 2.805038 0.000000 0.000000
											CHANNELS 3 Xrotation Yrotation Zrotation
											End Site
											{
												OFFSET -0.882500 2.642609 0.325652
											}
										}
									}
								}
							}
							JOINT Left_Sleeve
							{
								OFFSET 6.592125 -0.646545 0.805568
								CHANNELS 3 Xrotation Yrotation Zrotation
								End Site
								{
									OFFSET -0.000179 20.275787 -0.000000
								}
							}
						}
					}
				}
				JOINT RightShoulder
				{
					OFFSET -5.731700 15.108002 -2.763700
					CHANNELS 3 Xrotation Yrotation Zrotation
					JOINT RightArm
					{
						OFFSET -9.825497 2.506317 -1.597400
						CHANNELS 3 Xrotation Yrotation Zrotation
						JOINT RightForeArm
						{
							OFFSET -21.966242 0.000000 0.000000
							CHANNELS 3 Xrotation Yrotation Zrotation
							JOINT RightHand
							{
								OFFSET -33.879032 0.000000 0.000000
								CHANNELS 3 Xrotation Yrotation Zrotation
								JOINT RightHandThumb1
								{
									OFFSET -6.715286 -2.359680 3.363841
									CHANNELS 3 Xrotation Yrotation Zrotation
									JOINT RightHandThumb2
									{
										OFFSET -2.507072 -1.447464 1.447461
										CHANNELS 3 Xrotation Yrotation Zrotation
										JOINT RightHandThumb3
										{
											OFFSET -2.898338 -1.673355 1.673357
											CHANNELS 3 Xrotation Yrotation Zrotation
											End Site
											{
												OFFSET 0.295959 3.727692 -0.131651
											}
										}
									}
								}
								JOINT RightHandIndex1
								{
									OFFSET -14.190811 -0.254547 3.840278
									CHANNELS 3 Xrotation Yrotation Zrotation
									JOINT RightHandIndex2
									{
										OFFSET -3.551727 0.000000 -0.000000
										CHANNELS 3 Xrotation Yrotation Zrotation
										JOINT RightHandIndex3
										{
											OFFSET -2.894196 0.000000 0.000000
											CHANNELS 3 Xrotation Yrotation Zrotation
											End Site
											{
												OFFSET 1.000603 2.690872 0.366626
											}
										}
									}
								}
								JOINT RightHandMiddle1
								{
									OFFSET -13.776489 0.000000 0.000000
									CHANNELS 3 Xrotation Yrotation Zrotation
									JOINT RightHandMiddle2
									{
										OFFSET -3.438232 0.000000 0.000000
										CHANNELS 3 Xrotation Yrotation Zrotation
										JOINT RightHandMiddle3
										{
											OFFSET -3.691551 0.000000 0.000000
											CHANNELS 3 Xrotation Yrotation Zrotation
											End Site
											{
												OFFSET 1.082298 3.499527 0.457670
											}
										}
									}
								}
								JOINT RightHandRing1
								{
									OFFSET -13.966164 -0.268127 -3.067488
									CHANNELS 3 Xrotation Yrotation Zrotation
									JOINT RightHandRing2
									{
										OFFSET -3.162567 0.000000 0.000000
										CHANNELS 3 Xrotation Yrotation Zrotation
										JOINT RightHandRing3
										{
											OFFSET -3.324348 0.000000 0.000000
											CHANNELS 3 Xrotation Yrotation Zrotation
											End Site
											{
												OFFSET 0.861900 3.184998 0.405154
											}
										}
									}
								}
								JOINT RightHandPinky1
								{
									OFFSET -13.131393 -0.168503 -5.746925
									CHANNELS 3 Xrotation Yrotation Zrotation
									JOINT RightHandPinky2
									{
										OFFSET -2.849182 0.000000 0.000000
										CHANNELS 3 Xrotation Yrotation Zrotation
										JOINT RightHandPinky3
										{
											OFFSET -2.805038 0.000000 0.000000
											CHANNELS 3 Xrotation Yrotation Zrotation
											End Site
											{
												OFFSET 0.882500 2.642609 0.325652
											}
										}
									}
								}
							}
							JOINT Right_Sleeve
							{
								OFFSET -6.592125 -0.646545 0.805568
								CHANNELS 3 Xrotation Yrotation Zrotation
								End Site
								{
									OFFSET 0.000179 20.275787 -0.000000
								}
							}
						}
					}
				}
				JOINT Bind_Right_JacketString
				{
					OFFSET -3.534800 11.969597 7.200700
					CHANNELS 3 Xrotation Yrotation Zrotation
					JOINT Bind_Right_JacketString1
					{
						OFFSET -0.319900 -6.102600 2.794100
						CHANNELS 3 Xrotation Yrotation Zrotation
						End Site
						{
							OFFSET 0.000000 6.719452 0.000000
						}
					}
				}
				JOINT Bind_Left_JacketString
				{
					OFFSET 2.904800 11.969597 7.200700
					CHANNELS 3 Xrotation Yrotation Zrotation
					JOINT Bind_Left_JacketString1
					{
						OFFSET 0.364800 -5.904503 3.186800
						CHANNELS 3 Xrotation Yrotation Zrotation
						End Site
						{
							OFFSET 0.000000 6.719513 0.000000
						}
					}
				}
				JOINT HairE
				{
					OFFSET 5.915200 17.612701 -11.592200
					CHANNELS 3 Xrotation Yrotation Zrotation
					JOINT HairE1
					{
						OFFSET 0.289200 -7.171898 -1.284500
						CHANNELS 3 Xrotation Yrotation Zrotation
						End Site
						{
							OFFSET 0.000000 7.291756 0.000000
						}
					}
				}
				JOINT HairF
				{
					OFFSET -0.864800 17.612701 -11.592200
					CHANNELS 3 Xrotation Yrotation Zrotation
					JOINT HairF1
					{
						OFFSET 0.000000 -14.087097 -2.127501
						CHANNELS 3 Xrotation Yrotation Zrotation
						End Site
						{
							OFFSET 0.000000 14.246841 0.000000
						}
					}
				}
				JOINT HairG
				{
					OFFSET -8.087700 17.612701 -11.592200
					CHANNELS 3 Xrotation Yrotation Zrotation
					JOINT HairG1
					{
						OFFSET -0.293600 -6.081398 -0.910100
						CHANNELS 3 Xrotation Yrotation Zrotation
						End Site
						{
							OFFSET 0.000000 6.156120 0.000000
						}
					}
				}
			}
		}
	}
	JOINT Pouch
	{
		OFFSET 0.000000 4.394501 10.847300
		CHANNELS 3 Xrotation Yrotation Zrotation
		End Site
		{
			OFFSET 0.000000 21.880577 0.000000
		}
	}
	JOINT Bag
	{
		OFFSET -13.229000 4.813004 -0.593300
		CHANNELS 3 Xrotation Yrotation Zrotation
		End Site
		{
			OFFSET 0.000000 21.880577 0.000000
		}
	}
	JOINT OccupyGuyFacialAnim_Joint
	{
		OFFSET 1.000000 -70.206398 -1.655000
		CHANNELS 3 Xrotation Yrotation Zrotation
		End Site
		{
			OFFSET 0.000000 21.880577 0.000000
		}
	}
}
MOTION
Frames: 4
Frame Time: 0.033333
2.411359 11.757149 -110.139122 -72.352119 -17.623474 2.608383 0.000001 0.000000 -0.000000 -73.338296 15.825354 0.163244 111.428635 -10.146197 -0.541001 29.424247 -0.534239 -12.822005 0.000000 -0.000002 -0.000000 0.000003 0.000000 -0.000000 -38.036162 -2.348869 -1.875083 24.718712 -24.021123 -6.677797 0.128182 -0.242778 -1.271070 0.000001 -0.000001 0.000002 0.000001 0.000003 0.000000 8.205531 1.452325 -1.350109 16.485662 1.576827 -4.733309 16.485683 1.576825 -4.733311 35.683647 -1.130902 -4.105890 12.329466 -0.527143 -9.976132 0.000000 -0.000000 -0.000000 0.000000 -0.000000 -0.000000 0.000000 -0.000000 -0.000000 0.000000 -0.000000 -0.000000 -0.000002 -0.000000 -0.000000 0.000000 -0.000000 -0.000000 -0.000002 -0.000000 -0.000000 0.000000 -0.000000 -0.000000 0.000000 -0.000000 -0.000000 -13.098181 -3.085771 -4.056901 94.585710 81.111037 -89.883076 -32.604058 237.178483 -124.208684 -15.965062 14.358371 78.279664 -43.654126 2.074065 -39.112423 -8.535424 4.323088 1.031872 0.000000 -0.000000 0.000001 -5.388034 -16.645048 -7.043122 -1.399324 3.940790 -0.481028 0.000003 -0.000002 -0.000000 0.883060 -2.765798 -1.553326 0.632001 -1.974538 -10.672039 0.000001 -0.000003 0.000002 13.251725 5.662294 -6.693341 1.019264 -1.117146 -4.396534 -0.000000 0.000000 -0.000002 16.480869 14.399622 -4.859447 2.945961 -5.466603 -4.408421 -0.000002 -0.000000 -0.000001 0.000001 0.000001 -0.000002 -8.268702 4.551765 -11.074645 70.558525 -18.386569 71.068023 352.979504 72.617868 -328.524231 39.937653 -18.640969 -56.071656 -19.805144 14.922365 5.864050 -30.472011 -21.952966 8.739615 -0.000000 -0.000001 0.000002 2.497250 -0.031014 2.813356 0.051659 -1.537544 13.618966 -0.000000 0.000000 -0.000001 6.956114 -8.776577 3.662489 -0.647276 0.156887 12.572918 0.000001 -0.000001 -0.000001 -2.194515 -17.370747 1.685328 -0.000765 2.224321 16.715857 0.000001 0.000001 0.000000 3.633822 -26.578226 6.920944 -0.101528 5.067983 0.000020 0.000001 0.000002 -0.000001 -0.000000 0.000001 -0.000000 0.000002 0.000000 -0.000000 0.000002 -0.000001 -0.000000 0.000002 0.000000 -0.000000 0.000002 0.000000 -0.000000 0.000002 0.000000 -0.000000 0.000002 -0.000001 -0.000000 0.000002 0.000000 -0.000000 0.000002 0.000000 -0.000000 0.000002 0.000000 -0.000000 0.000002 -0.000001 -0.000000 0.000001 0.000000 -0.000000 0.000001 0.000000 -0.000000 0.000001 0.000000 -0.000000 
2.212860 12.602757 -112.473785 -70.837347 -16.907331 1.142524 -0.000002 0.000000 -0.000000 -71.136898 12.950193 0.459719 106.454085 -11.966469 -0.784022 30.747647 -0.482394 -13.380479 0.000000 -0.000002 -0.000000 -0.000001 0.000000 -0.000000 -43.933505 -1.793807 1.003610 33.844906 -22.884154 -6.250340 4.213478 -0.425289 -11.803519 -0.000001 0.000001 0.000000 0.000002 -0.000000 -0.000000 8.398909 1.340113 -0.797610 16.852669 1.639478 -3.223451 16.852691 1.639487 -3.223455 35.883587 -1.548875 -4.266664 13.347385 -1.191327 -11.137392 0.000001 -0.000000 -0.000001 0.000001 -0.000000 -0.000001 0.000001 -0.000000 -0.000001 0.000001 -0.000000 -0.000001 -0.000001 -0.000000 0.000000 0.000001 -0.000000 -0.000001 -0.000001 -0.000000 0.000000 0.000001 -0.000000 -0.000001 0.000001 -0.000000 -0.000001 -12.838723 -3.390025 -6.442770 76.977987 78.301336 -82.058439 -43.972512 232.853580 -135.197406 -18.666647 13.676590 78.518748 -43.654099 2.074051 -39.112395 -8.535770 4.323159 1.032800 0.000003 -0.000001 -0.000001 -5.388029 -16.645055 -7.043119 -1.399326 3.940793 -0.481026 0.000001 -0.000002 0.000001 0.883064 -2.765808 -1.553325 0.631999 -1.974536 -10.672032 -0.000001 0.000003 -0.000001 13.251732 5.662301 -6.693349 1.019278 -1.116894 -4.396559 -0.000001 0.000004 -0.000000 16.480876 14.399613 -4.859471 2.945965 -5.466626 -4.408416 -0.000000 -0.000001 0.000004 0.000001 -0.000000 0.000000 -5.546199 3.269824 -7.524859 63.522569 -17.837575 72.042260 359.391167 69.880847 -340.730434 40.203972 -18.461839 -56.092720 -19.805148 14.922375 5.864048 -30.472022 -21.952978 8.739631 0.000000 -0.000002 0.000002 2.497241 -0.030994 2.813376 0.051654 -1.537539 13.618982 0.000000 0.000004 -0.000001 6.956104 -8.776574 3.662502 -0.647287 0.156913 12.572943 0.000001 -0.000003 0.000001 -2.194524 -17.370728 1.685322 -0.004290 2.222962 16.716029 -0.000002 -0.000001 0.000001 3.633810 -26.578202 6.920892 -0.102328 5.068092 0.000001 -0.000000 0.000000 0.000001 -0.000001 -0.000002 0.000000 -0.000001 0.000000 -0.000001 -0.000001 0.000000 -0.000000 -0.000001 0.000000 -0.000001 -0.000001 0.000000 -0.000001 -0.000001 0.000000 -0.000001 -0.000001 0.000000 -0.000000 -0.000001 0.000000 -0.000001 -0.000001 0.000000 -0.000001 -0.000001 0.000000 -0.000001 -0.000001 0.000000 -0.000000 -0.000002 0.000000 -0.000000 -0.000002 0.000000 -0.000000 -0.000002 0.000000 -0.000000 
1.946818 13.329460 -114.875626 -69.635828 -15.623725 0.076845 -0.000002 0.000000 -0.000000 -68.673502 10.500700 0.428853 100.937376 -13.564222 -1.015046 32.794597 -0.767129 -13.934657 0.000000 0.000002 -0.000000 0.000002 0.000000 -0.000000 -50.757188 -0.176918 2.873104 46.616724 -21.911553 -5.987719 4.537160 -0.453382 -12.569959 0.000000 -0.000000 0.000001 0.000002 0.000001 -0.000000 8.723495 1.279024 -0.405557 17.487919 1.760853 -2.102782 17.487945 1.760855 -2.102786 35.859494 -1.811393 -4.259898 15.000810 -1.955769 -11.654964 0.000000 0.000000 -0.000000 0.000000 0.000000 -0.000000 0.000000 0.000000 -0.000000 0.000000 0.000000 0.000000 0.000000 0.000000 -0.000000 0.000000 0.000000 0.000000 0.000000 0.000000 -0.000000 0.000000 0.000000 -0.000000 0.000000 0.000000 -0.000000 -12.309491 -4.097731 -8.144571 59.838652 74.495132 -74.527520 -53.905847 228.559904 -144.743484 -20.897041 12.837554 79.044946 -43.654112 2.074051 -39.112416 -8.536090 4.323246 1.033820 0.000000 0.000003 -0.000001 -5.388035 -16.645077 -7.043126 -1.399331 3.940813 -0.481025 0.000001 -0.000001 -0.000000 0.883061 -2.765798 -1.553326 0.631991 -1.974555 -10.672054 -0.000001 0.000004 0.000003 13.251722 5.662289 -6.693343 1.019240 -1.117257 -4.396539 -0.000002 0.000004 -0.000000 16.480867 14.399606 -4.859458 2.945960 -5.466607 -4.408432 -0.000000 -0.000004 0.000000 0.000000 0.000001 -0.000001 -2.623335 1.831818 -2.010174 55.694162 -18.744049 71.347043 362.750145 67.190804 -349.254292 40.441963 -18.128212 -55.917198 -19.805168 14.922375 5.864068 -30.472028 -21.952976 8.739616 0.000001 -0.000004 0.000000 2.497244 -0.030996 2.813350 0.051654 -1.537529 13.618935 0.000000 -0.000000 -0.000002 6.956114 -8.776565 3.662472 -0.647278 0.156900 12.572897 -0.000000 0.000000 0.000001 -2.194514 -17.370749 1.685301 -0.007432 2.221715 16.716155 0.000001 -0.000001 -0.000003 3.633828 -26.578230 6.920887 -0.103582 5.068052 0.000015 0.000001 0.000002 0.000001 -0.000000 0.000004 -0.000001 0.000000 0.000000 -0.000000 -0.000001 0.000000 0.000000 0.000000 0.000000 -0.000000 0.000000 0.000000 -0.000000 0.000000 0.000000 -0.000000 -0.000001 0.000000 0.000000 0.000000 0.000000 -0.000000 0.000000 0.000000 -0.000000 0.000000 0.000000 -0.000000 -0.000001 0.000000 0.000000 -0.000002 0.000000 -0.000000 -0.000002 0.000000 -0.000000 -0.000002 0.000000 -0.000000 
1.567708 13.656235 -117.054688 -68.880511 -13.437495 -0.702650 0.000000 0.000000 0.000001 -66.557564 8.166178 -0.142316 95.644949 -14.914835 -1.236960 35.501271 -1.424107 -14.510715 0.000000 -0.000000 0.000000 -0.000000 0.000000 -0.000000 -59.141351 1.467328 4.662848 61.914756 -25.364773 -5.774406 8.343675 -1.035326 -14.004035 -0.000002 -0.000002 -0.000001 0.000000 -0.000000 -0.000000 9.268447 1.057510 -0.305331 18.557142 1.747021 -1.244938 18.557144 1.747019 -1.244938 35.409442 -1.759766 -4.060075 16.789411 -2.320150 -11.088005 0.000000 -0.000000 -0.000000 0.000000 -0.000000 -0.000000 0.000000 -0.000000 -0.000000 0.000000 -0.000000 -0.000000 -0.000001 -0.000000 -0.000000 0.000000 -0.000000 -0.000000 -0.000001 -0.000000 -0.000000 0.000000 -0.000000 -0.000000 0.000000 -0.000000 -0.000000 -11.541821 -4.889311 -9.051041 45.178327 69.503028 -68.645921 -61.828484 225.237127 -152.148584 -23.031736 12.196841 80.107061 -43.654119 2.074071 -39.112416 -8.536454 4.323325 1.034808 0.000000 -0.000000 -0.000002 -5.388042 -16.645060 -7.043121 -1.399326 3.940806 -0.481027 -0.000000 -0.000000 -0.000002 0.883058 -2.765789 -1.553312 0.631997 -1.974541 -10.672032 -0.000000 0.000000 -0.000001 13.251724 5.662292 -6.693316 1.019158 -1.118114 -4.396438 -0.000001 0.000000 -0.000001 16.480876 14.399635 -4.859415 2.945950 -5.466626 -4.408415 -0.000001 -0.000003 0.000001 0.000001 0.000002 -0.000001 1.903127 0.033044 0.256256 43.851577 -15.785206 70.565048 367.786863 61.432859 -357.175208 38.286926 -17.125753 -56.928978 -19.805184 14.922380 5.864074 -30.472008 -21.952981 8.739612 0.000001 0.000001 -0.000001 2.497238 -0.031003 2.813346 0.051655 -1.537522 13.618936 0.000000 -0.000003 -0.000000 6.956106 -8.776557 3.662463 -0.647284 0.156903 12.572890 0.000001 0.000004 0.000002 -2.194514 -17.370733 1.685291 -0.010108 2.220719 16.716258 -0.000001 0.000000 0.000000 3.633822 -26.578221 6.920871 -0.104870 5.068116 0.000019 0.000000 0.000002 -0.000001 0.000001 0.000000 0.000000 0.000001 -0.000000 -0.000000 -0.000001 -0.000000 0.000001 0.000001 -0.000000 -0.000000 0.000001 -0.000000 -0.000000 0.000001 -0.000000 -0.000000 -0.000001 -0.000000 0.000001 0.000001 -0.000000 -0.000000 0.000001 -0.000000 -0.000000 0.000001 -0.000000 -0.000000 -0.000001 -0.000000 0.000001 0.000000 0.000000 0.000001 0.000000 0.000000 0.000001 0.000000 0.000000 0.000001 
